<svg xmlns="http://www.w3.org/2000/svg" width="512" height="512" viewBox="0 0 512 512" role="img" aria-labelledby="title desc">
  <title id="title">file-ud.js logo</title>
  <desc id="desc">A file transfer logo with upload and download arrows around the letters UD.</desc>
  <defs>
    <linearGradient id="bg" x1="72" y1="64" x2="440" y2="448" gradientUnits="userSpaceOnUse">
      <stop offset="0" stop-color="#2563eb"/>
      <stop offset="0.52" stop-color="#0891b2"/>
      <stop offset="1" stop-color="#16a34a"/>
    </linearGradient>
    <linearGradient id="panel" x1="150" y1="118" x2="362" y2="394" gradientUnits="userSpaceOnUse">
      <stop offset="0" stop-color="#ffffff" stop-opacity="0.96"/>
      <stop offset="1" stop-color="#e0f2fe" stop-opacity="0.9"/>
    </linearGradient>
    <filter id="shadow" x="-20%" y="-20%" width="140%" height="140%">
      <feDropShadow dx="0" dy="18" stdDeviation="18" flood-color="#0f172a" flood-opacity="0.22"/>
    </filter>
  </defs>

  <rect x="32" y="32" width="448" height="448" rx="92" fill="url(#bg)"/>
  <path d="M112 374c55 40 121 57 185 48 56-8 104-35 142-76v42c0 28-23 51-51 51H124c-28 0-51-23-51-51v-39c12 8 25 16 39 25z" fill="#020617" opacity="0.1"/>

  <g filter="url(#shadow)">
    <path d="M153 116h150l62 62v218H153V116z" fill="url(#panel)"/>
    <path d="M303 116v62h62" fill="#bae6fd"/>
    <path d="M153 116h150l62 62v218H153V116z" fill="none" stroke="#ffffff" stroke-opacity="0.78" stroke-width="10" stroke-linejoin="round"/>
  </g>

  <g fill="none" stroke-linecap="round" stroke-linejoin="round" stroke-width="20">
    <path d="M133 218h-38v-70" stroke="#f59e0b"/>
    <path d="M95 148l-30 30" stroke="#f59e0b"/>
    <path d="M95 148l30 30" stroke="#f59e0b"/>
    <path d="M379 294h38v70" stroke="#22c55e"/>
    <path d="M417 364l-30-30" stroke="#22c55e"/>
    <path d="M417 364l30-30" stroke="#22c55e"/>
  </g>

  <g fill="#0f172a">
    <path d="M190 221h33v83c0 19 10 31 29 31s29-12 29-31v-83h33v85c0 39-24 61-62 61s-62-22-62-61v-85z"/>
    <path d="M326 221h50c45 0 76 29 76 72s-31 72-76 72h-50V221zm48 113c27 0 44-16 44-41s-17-41-44-41h-15v82h15z"/>
  </g>

  <g fill="#ffffff" opacity="0.92">
    <rect x="131" y="252" width="34" height="24" rx="7"/>
    <rect x="347" y="252" width="34" height="24" rx="7"/>
    <rect x="131" y="304" width="34" height="24" rx="7"/>
    <rect x="347" y="304" width="34" height="24" rx="7"/>
  </g>
</svg>
